<?xml version="1.0" encoding="UTF-8" standalone="no"?>
<svg
   version="1.0"
   width="580"
   height="580"
   id="svg7"
   sodipodi:docname="s_pizza.svg"
   inkscape:version="1.2.1 (9c6d41e410, 2022-07-14)"
   xmlns:inkscape="http://www.inkscape.org/namespaces/inkscape"
   xmlns:sodipodi="http://sodipodi.sourceforge.net/DTD/sodipodi-0.dtd"
   xmlns="http://www.w3.org/2000/svg"
   xmlns:svg="http://www.w3.org/2000/svg">
  <defs
     id="defs11" />
  <sodipodi:namedview
     id="namedview9"
     pagecolor="#ffffff"
     bordercolor="#000000"
     borderopacity="0.25"
     inkscape:showpageshadow="2"
     inkscape:pageopacity="0.0"
     inkscape:pagecheckerboard="0"
     inkscape:deskcolor="#d1d1d1"
     showgrid="false"
     inkscape:zoom="1.512069"
     inkscape:cx="290.66134"
     inkscape:cy="212.95324"
     inkscape:window-width="1920"
     inkscape:window-height="1057"
     inkscape:window-x="1912"
     inkscape:window-y="-8"
     inkscape:window-maximized="1"
     inkscape:current-layer="svg7" />
  <metadata
     id="metadata10" />
  <path
     d="M 349.90039 121.44922 C 258.00039 121.39922 206 171.00078 136 131.30078 L 139 430 C 162 450 193 457 222 459 C 268 460 318 456 357 428 L 358.80078 122 C 355.80078 121.9 352.80039 121.89922 349.90039 121.44922 z M 373 454 C 350 472 322 480 293 485 C 236 493 170 494 122 455 C 104 479 144 491 161 497 C 212 512 268 511 320 499 C 341 493 369 488 378 466 C 378 462 376 458 373 454 z "
     id="path4156"
     opacity="0.9"
     fill="#ffffff"
     isolation="auto"
     color-rendering="auto"
     white-space="normal"
     solid-opacity="1"
     mix-blend-mode="normal"
     color-interpolation-filters="linearRGB"
     shape-rendering="auto"
     image-rendering="auto"
     color-interpolation="sRGB"
     color="#000000"
     solid-color="#000000" />
  <g
     id="XMLID_13610_"
     transform="matrix(10.945759,0,0,12.10703,33.792188,11.939643)">
		<path
   id="XMLID_13623_"
   class="st1"
   d="M 40.6,11.4 C 35.6,8.9 30,7.5 24,7.5 18,7.5 12.4,8.9 7.4,11.4 L 9.6,16 c 1.2,2.5 1.9,5.2 1.9,8 v 4.4 c 0,1 0.7,1.9 1.7,2.1 1.3,0.2 2.3,-0.8 2.3,-2 v -0.7 l 7.6,15.4 c 0.4,0.7 1.4,0.7 1.8,0 0.6,-1.2 1.5,-3.1 2.6,-5.3 V 40 c 0,0.8 0.7,1.5 1.5,1.5 0.8,0 1.5,-0.7 1.5,-1.5 v -5.8 c 0,-1.5 0.4,-3.1 1,-4.4 1.3,-2.6 2.6,-5.3 4,-8 v 2.7 c 0,0.8 0.7,1.5 1.5,1.5 0.8,0 1.5,-0.7 1.5,-1.5 V 18 c 0,-1.5 0.4,-3.1 1,-4.4 0.4,-0.7 0.8,-1.5 1.1,-2.2 z"
   style="fill:#ffe500" />

		
		<path
   id="XMLID_13621_"
   class="st34"
   d="m 30.5,22.5 c -2.5,0 -4.5,2 -4.5,4.5 0,2.5 2,4.5 4.5,4.5 0.1,0 0.1,0 0.2,0 1.1,-2.2 2.3,-4.6 3.5,-7.1 -0.8,-1.1 -2.2,-1.9 -3.7,-1.9 z"
   style="fill:#ff6242;stroke:#45413c;stroke-linecap:round;stroke-linejoin:round;stroke-miterlimit:10" />

		<path
   id="XMLID_13620_"
   class="st34"
   d="m 23.5,33 c 0,-2.5 -2,-4.5 -4.5,-4.5 -1,0 -2,0.4 -2.7,0.9 l 3.9,7.9 c 1.9,-0.5 3.3,-2.2 3.3,-4.3 z"
   style="fill:#ff6242;stroke:#45413c;stroke-linecap:round;stroke-linejoin:round;stroke-miterlimit:10" />

		<circle
   id="XMLID_13619_"
   class="st34"
   cx="30.5"
   cy="14.5"
   r="4.5"
   style="fill:#ff6242;stroke:#45413c;stroke-linecap:round;stroke-linejoin:round;stroke-miterlimit:10" />

		<path
   id="XMLID_13618_"
   class="st14"
   d="m 24,7.5 c 6,0 11.6,1.4 16.6,3.9 0,0 2.5,0.3 2.9,-1.9 C 44.5,4 28.2,2.5 24,2.5 19.8,2.5 3.5,4 4.5,9.5 4.9,11.7 7.4,11.4 7.4,11.4 12.4,8.9 18,7.5 24,7.5 Z"
   style="fill:#f0d5a8" />

		
		<path
   id="XMLID_13616_"
   class="st3"
   d="m 24,7.5 c 6,0 11.6,1.4 16.6,3.9 0,0 2.5,0.3 2.9,-1.9 C 44.5,4 28.2,2.5 24,2.5 19.8,2.5 3.5,4 4.5,9.5 4.9,11.7 7.4,11.4 7.4,11.4 12.4,8.9 18,7.5 24,7.5 Z"
   style="fill:none;stroke:#45413c;stroke-linecap:round;stroke-linejoin:round;stroke-miterlimit:10" />

		<circle
   id="XMLID_13615_"
   class="st34"
   cx="17"
   cy="17"
   r="4.5"
   style="fill:#ff6242;stroke:#45413c;stroke-linecap:round;stroke-linejoin:round;stroke-miterlimit:10" />

		<line
   id="XMLID_13614_"
   class="st3"
   x1="15.5"
   y1="27.799999"
   x2="15.5"
   y2="25.5"
   style="fill:none;stroke:#45413c;stroke-linecap:round;stroke-linejoin:round;stroke-miterlimit:10" />

		<path
   id="XMLID_13613_"
   class="st3"
   d="M 40.6,11.4 C 35.6,8.9 30,7.5 24,7.5 18,7.5 12.4,8.9 7.4,11.4 L 9.6,16 c 1.2,2.5 1.9,5.2 1.9,8 v 4.4 c 0,1 0.7,1.9 1.7,2.1 1.3,0.2 2.3,-0.8 2.3,-2 v -0.7 l 7.6,15.4 c 0.4,0.7 1.4,0.7 1.8,0 0.6,-1.2 1.5,-3.1 2.6,-5.3 V 40 c 0,0.8 0.7,1.5 1.5,1.5 0.8,0 1.5,-0.7 1.5,-1.5 v -5.8 c 0,-1.5 0.4,-3.1 1,-4.4 1.3,-2.6 2.6,-5.3 4,-8 v 2.7 c 0,0.8 0.7,1.5 1.5,1.5 0.8,0 1.5,-0.7 1.5,-1.5 V 18 c 0,-1.5 0.4,-3.1 1,-4.4 0.4,-0.7 0.8,-1.5 1.1,-2.2 z"
   style="fill:none;stroke:#45413c;stroke-linecap:round;stroke-linejoin:round;stroke-miterlimit:10" />

		<line
   id="XMLID_13612_"
   class="st3"
   x1="27.5"
   y1="35.5"
   x2="27.5"
   y2="37.900002"
   style="fill:none;stroke:#45413c;stroke-linecap:round;stroke-linejoin:round;stroke-miterlimit:10" />

		<line
   id="XMLID_13611_"
   class="st3"
   x1="35.5"
   y1="20"
   x2="35.5"
   y2="21.799999"
   style="fill:none;stroke:#45413c;stroke-linecap:round;stroke-linejoin:round;stroke-miterlimit:10" />

	</g>
</svg>
